<svg xmlns="http://www.w3.org/2000/svg" version="1.1" xmlns:xlink="http://www.w3.org/1999/xlink" xmlns:svgjs="http://svgjs.dev/svgjs" viewBox="0 0 600 600" opacity="1"><path d="M283.9005126953125 122.51309204101562C230.89002990722656 70.81152089436848 281.1518147786458 63.61256408691406 228.141357421875 130.36648559570312C175.13090006510419 197.1204071044922 235.99476369222006 72.3822021484375 220.2879638671875 202.6177978515625C204.58116404215494 332.8533935546875 219.7644017537435 141.36124165852866 209.29319763183594 286.6492004394531C198.82199350992838 431.93715922037757 197.9057642618815 232.98428853352866 207.72251892089844 376.9633483886719C217.53927357991537 520.9424082438151 170.02618153889972 390.05235290527344 221.07330322265625 459.424072265625C272.1204249064128 528.7957916259766 220.5497538248698 502.74867757161456 268.97906494140625 460.20941162109375C317.4083760579427 417.67014567057294 259.5549672444661 522.9057362874349 279.1884765625 408.376953125C298.8219858805339 293.84816996256507 282.06805928548175 502.74869028727215 292.5392761230469 322.7748718261719C303.010492960612 142.8010533650716 298.9529062906901 359.2931874593099 291.7539367675781 192.4083709716797C284.5549672444661 25.523554484049498 336.91099548339844 174.21466318766278 283.9005126953125 122.51309204101562C230.89002990722656 70.81152089436848 281.1518147786458 63.61256408691406 228.141357421875 130.36648559570312 " fill="hsl(30, 100%, 50%)" stroke-width="0" stroke="hsl(340, 45%, 30%)" transform="matrix(1,0,0,1,0,0)" fill-opacity="1"></path><path d="M239.92146125513887 59.68586850790405C186.91097846705293 7.984297361256907 237.17276333847218 0.7853405538024845 184.16230598170137 67.53926206259155C131.15184862493055 134.2931835713806 192.01571225204643 9.554978615325922 176.30891242701387 139.79057431845092C160.6021126019813 270.0261700215759 175.78535031356986 78.53401812541708 165.3141461916623 223.82197690634155C154.84294206975474 369.109935687266 153.92671282170787 170.15706500041708 163.7434674807248 314.1361248555603C173.56022213974174 458.1151847107034 126.04713009872609 327.22512937216186 177.09425178248262 396.5968487325134C228.14137346623914 465.9685680928647 176.57070238469618 439.921454038503 225.00001350123262 397.3821880879822C273.42932461776905 354.84292213746136 215.5759158042925 460.07851275432324 235.20942512232637 345.5497295918884C254.84293444036024 231.0209464294535 238.08900784530812 439.9214667541606 248.56022468287324 259.9476482930603C259.03144152043836 79.97382983196002 254.9738548505165 296.4659639261983 247.7748853274045 129.5811474385681C240.5759158042925 -37.30366904906208 292.9319440432248 111.3874396545512 239.92146125513887 59.68586850790405C186.91097846705293 7.984297361256907 237.17276333847218 0.7853405538024845 184.16230598170137 67.53926206259155 " fill-opacity="0.51" fill="hsl(30, 100%, 50%)" opacity="1" stroke-opacity="1" stroke-width="0" stroke="hsl(340, 45%, 30%)" transform="matrix(1,0,0,1,75,75)"></path></svg>